<?xml version="1.0" encoding="UTF-8" standalone="no"?>
<!DOCTYPE svg PUBLIC "-//W3C//DTD SVG 1.1//EN"
 "http://www.w3.org/Graphics/SVG/1.1/DTD/svg11.dtd">
<!-- Generated by graphviz version 6.0.1 (20220911.1526)
 -->
<!-- Pages: 1 -->
<svg width="183pt" height="164pt"
 viewBox="0.00 0.00 183.00 164.47" xmlns="http://www.w3.org/2000/svg" xmlns:xlink="http://www.w3.org/1999/xlink">
<g id="graph0" class="graph" transform="scale(1 1) rotate(0) translate(4 160.47)">
<polygon fill="white" stroke="none" points="-4,4 -4,-160.47 179,-160.47 179,4 -4,4"/>
<!-- &#45;1 -->
<g id="node1" class="node">
<title>&#45;1</title>
<polygon fill="lightgray" stroke="black" points="24,-93.08 0,-93.08 0,-75.08 24,-75.08 24,-93.08"/>
<text text-anchor="middle" x="12" y="-81.88" font-family="Times New Roman,serif" font-size="9.00">&#45;1</text>
</g>
<!-- 0 -->
<g id="node5" class="node">
<title>0</title>
<ellipse fill="lightblue" stroke="black" cx="94" cy="-14.85" rx="14.7" ry="14.7"/>
<text text-anchor="middle" x="94" y="-12.65" font-family="Times New Roman,serif" font-size="9.00">0</text>
</g>
<!-- &#45;1&#45;&gt;0 -->
<g id="edge1" class="edge">
<title>&#45;1&#45;&gt;0</title>
<path fill="none" stroke="green" stroke-width="0.38" d="M21.82,-74.93C25.34,-72.02 29.34,-68.71 33,-65.7 46.94,-54.23 62.72,-41.34 74.73,-31.54"/>
<polygon fill="green" stroke="green" stroke-width="0.38" points="77.2,-34.05 82.74,-25.02 72.78,-28.62 77.2,-34.05"/>
</g>
<!-- &#45;2 -->
<g id="node2" class="node">
<title>&#45;2</title>
<polygon fill="lightgray" stroke="black" points="66,-93.08 42,-93.08 42,-75.08 66,-75.08 66,-93.08"/>
<text text-anchor="middle" x="54" y="-81.88" font-family="Times New Roman,serif" font-size="9.00">&#45;2</text>
</g>
<!-- &#45;2&#45;&gt;0 -->
<g id="edge2" class="edge">
<title>&#45;2&#45;&gt;0</title>
<path fill="none" stroke="red" stroke-width="0.18" d="M58.9,-74.84C64.48,-65.47 73.79,-49.82 81.42,-36.99"/>
<polygon fill="red" stroke="red" stroke-width="0.18" points="84.5,-38.66 86.61,-28.28 78.48,-35.08 84.5,-38.66"/>
</g>
<!-- &#45;3 -->
<g id="node3" class="node">
<title>&#45;3</title>
<polygon fill="lightgray" stroke="black" points="119,-156.47 95,-156.47 95,-138.47 119,-138.47 119,-156.47"/>
<text text-anchor="middle" x="107" y="-145.27" font-family="Times New Roman,serif" font-size="9.00">&#45;3</text>
</g>
<!-- &#45;3&#45;&gt;0 -->
<g id="edge3" class="edge">
<title>&#45;3&#45;&gt;0</title>
<path fill="none" stroke="red" stroke-width="0.13" d="M106.19,-138.3C104.26,-118.9 99.34,-69.46 96.37,-39.68"/>
<polygon fill="red" stroke="red" stroke-width="0.13" points="99.85,-39.29 95.38,-29.68 92.88,-39.98 99.85,-39.29"/>
</g>
<!-- 10 -->
<g id="node6" class="node">
<title>10</title>
<ellipse fill="white" stroke="black" cx="140" cy="-84.08" rx="18.27" ry="18.27"/>
<text text-anchor="middle" x="140" y="-81.88" font-family="Times New Roman,serif" font-size="9.00">10</text>
</g>
<!-- &#45;3&#45;&gt;10 -->
<g id="edge5" class="edge">
<title>&#45;3&#45;&gt;10</title>
<path fill="none" stroke="green" stroke-width="0.59" d="M111.31,-138.44C115.22,-131.18 121.18,-120.08 126.66,-109.89"/>
<polygon fill="green" stroke="green" stroke-width="0.59" points="129.84,-111.38 131.49,-100.92 123.67,-108.07 129.84,-111.38"/>
</g>
<!-- &#45;4 -->
<g id="node4" class="node">
<title>&#45;4</title>
<polygon fill="lightgray" stroke="black" points="175,-156.47 151,-156.47 151,-138.47 175,-138.47 175,-156.47"/>
<text text-anchor="middle" x="163" y="-145.27" font-family="Times New Roman,serif" font-size="9.00">&#45;4</text>
</g>
<!-- &#45;4&#45;&gt;0 -->
<g id="edge4" class="edge">
<title>&#45;4&#45;&gt;0</title>
<path fill="none" stroke="red" stroke-width="0.32" d="M165.99,-138.32C171.04,-123.05 179.59,-89.54 167,-65.7 156.58,-45.96 134.43,-32.56 117.25,-24.67"/>
<polygon fill="red" stroke="red" stroke-width="0.32" points="118.4,-21.35 107.83,-20.65 115.66,-27.79 118.4,-21.35"/>
</g>
<!-- &#45;4&#45;&gt;10 -->
<g id="edge7" class="edge">
<title>&#45;4&#45;&gt;10</title>
<path fill="none" stroke="green" stroke-width="0.39" d="M159.99,-138.44C157.38,-131.47 153.45,-120.98 149.76,-111.13"/>
<polygon fill="green" stroke="green" stroke-width="0.39" points="153,-109.8 146.21,-101.66 146.44,-112.25 153,-109.8"/>
</g>
<!-- 10&#45;&gt;0 -->
<g id="edge6" class="edge">
<title>10&#45;&gt;0</title>
<path fill="none" stroke="green" stroke-width="0.5" d="M130.02,-68.49C123.56,-59.06 115.06,-46.63 107.94,-36.22"/>
<polygon fill="green" stroke="green" stroke-width="0.5" points="110.66,-34 102.12,-27.72 104.88,-37.95 110.66,-34"/>
</g>
</g>
</svg>
